HIERARCHY
ROOT Hips
{
	OFFSET 0.00000 0.00000 0.00000
	CHANNELS 6 Xposition Yposition Zposition Zrotation Yrotation Xrotation 
	JOINT LHipJoint
	{
		OFFSET 0 0 0
		CHANNELS 3 Zrotation Yrotation Xrotation
		JOINT LeftUpLeg
		{
			OFFSET 1.77779 -1.88989 0.48267
			CHANNELS 3 Zrotation Yrotation Xrotation
			JOINT LeftLeg
			{
				OFFSET 2.53442 -6.96327 0.00000
				CHANNELS 3 Zrotation Yrotation Xrotation
				JOINT LeftFoot
				{
					OFFSET 2.71068 -7.44755 0.00000
					CHANNELS 3 Zrotation Yrotation Xrotation
					JOINT LeftToeBase
					{
						OFFSET 0.17992 -0.49431 2.22524
						CHANNELS 3 Zrotation Yrotation Xrotation
						End Site
						{
							OFFSET 0.00000 -0.00000 1.14687
						}
					}
				}
			}
		}
	}
	JOINT RHipJoint
	{
		OFFSET 0 0 0
		CHANNELS 3 Zrotation Yrotation Xrotation
		JOINT RightUpLeg
		{
			OFFSET -1.58469 -1.88989 0.48267
			CHANNELS 3 Zrotation Yrotation Xrotation
			JOINT RightLeg
			{
				OFFSET -2.60386 -7.15404 0.00000
				CHANNELS 3 Zrotation Yrotation Xrotation
				JOINT RightFoot
				{
					OFFSET -2.73334 -7.50979 0.00000
					CHANNELS 3 Zrotation Yrotation Xrotation
					JOINT RightToeBase
					{
						OFFSET -0.25618 -0.70384 2.21822
						CHANNELS 3 Zrotation Yrotation Xrotation
						End Site
						{
							OFFSET -0.00000 -0.00000 1.16381
						}
					}
				}
			}
		}
	}
	JOINT LowerBack
	{
		OFFSET 0 0 0
		CHANNELS 3 Zrotation Yrotation Xrotation
		JOINT Spine
		{
			OFFSET 0.03410 2.01612 -0.22230
			CHANNELS 3 Zrotation Yrotation Xrotation
			JOINT Spine1
			{
				OFFSET 0.03465 2.03012 0.00937
				CHANNELS 3 Zrotation Yrotation Xrotation
				JOINT Neck
				{
					OFFSET 0 0 0
					CHANNELS 3 Zrotation Yrotation Xrotation
					JOINT Neck1
					{
						OFFSET -0.00219 1.70459 0.20857
						CHANNELS 3 Zrotation Yrotation Xrotation
						JOINT Head
						{
							OFFSET 0.02518 1.72339 -0.22179
							CHANNELS 3 Zrotation Yrotation Xrotation
							End Site
							{
								OFFSET 0.00282 1.74122 -0.09823
							}
						}
					}
				}
				JOINT LeftShoulder
				{
					OFFSET 0 0 0
					CHANNELS 3 Zrotation Yrotation Xrotation
					JOINT LeftArm
					{
						OFFSET 3.36358 1.00547 -0.37661
						CHANNELS 3 Zrotation Yrotation Xrotation
						JOINT LeftForeArm
						{
							OFFSET 5.06507 -0.00000 0.00000
							CHANNELS 3 Zrotation Yrotation Xrotation
							JOINT LeftHand
							{
								OFFSET 3.60196 -0.00000 0.00000
								CHANNELS 3 Zrotation Yrotation Xrotation
								JOINT LeftFingerBase
								{
									OFFSET 0 0 0
									CHANNELS 3 Zrotation Yrotation Xrotation
									JOINT LeftHandIndex1
									{
										OFFSET 0.45035 -0.00000 0.00000
										CHANNELS 3 Zrotation Yrotation Xrotation
										End Site
										{
											OFFSET 0.36308 -0.00000 0.00000
										}
									}
								}
								JOINT LThumb
								{
									OFFSET 0 0 0
									CHANNELS 3 Zrotation Yrotation Xrotation
									End Site
									{
										OFFSET 0.36862 -0.00000 0.36862
									}
								}
							}
						}
					}
				}
				JOINT RightShoulder
				{
					OFFSET 0 0 0
					CHANNELS 3 Zrotation Yrotation Xrotation
					JOINT RightArm
					{
						OFFSET -3.50159 0.80383 -0.71526
						CHANNELS 3 Zrotation Yrotation Xrotation
						JOINT RightForeArm
						{
							OFFSET -5.36394 -0.00000 0.00000
							CHANNELS 3 Zrotation Yrotation Xrotation
							JOINT RightHand
							{
								OFFSET -3.58035 -0.00000 0.00000
								CHANNELS 3 Zrotation Yrotation Xrotation
								JOINT RightFingerBase
								{
									OFFSET 0 0 0
									CHANNELS 3 Zrotation Yrotation Xrotation
									JOINT RightHandIndex1
									{
										OFFSET -0.66375 -0.00000 0.00000
										CHANNELS 3 Zrotation Yrotation Xrotation
										End Site
										{
											OFFSET -0.53513 -0.00000 0.00000
										}
									}
								}
								JOINT RThumb
								{
									OFFSET 0 0 0
									CHANNELS 3 Zrotation Yrotation Xrotation
									End Site
									{
										OFFSET -0.54330 -0.00000 0.54330
									}
								}
							}
						}
					}
				}
			}
		}
	}
}
MOTION
Frames: 9
Frame Time: 0.0166666
4.7116 17.9487 12.7178 0.2785 -3.2001 -5.7038 0.0000 0.0000 0.0000 -23.9780 -6.3875 -5.5974 2.4042 9.6617 27.8880 0.4802 -4.5591 -12.3287 0.0000 -0.0317 -0.0871 0.0000 0.0000 0.0000 22.0223 7.2009 -17.7795 -14.5754 -19.2794 73.9544 0.1830 -7.5989 -1.9793 -0.4903 -4.4899 12.4591 -1.1709 0.7424 10.7707 0.6746 0.8820 0.3439 1.2296 0.4739 -5.7145 -1.8255 -3.0510 -15.8123 0.5522 -3.9242 21.4972 -0.0046 -1.9189 9.4413 0.0000 0.0000 0.0000 -84.5207 5.8509 23.4671 12.5441 -20.6155 -2.2902 -0.0000 0.0000 -3.2862 28.2227 23.2372 11.9558 -7.1250 0.0000 -0.0000 -0.9871 55.9570 -0.2654 0.0000 0.0000 0.0000 89.5984 1.7849 3.3966 -12.9171 21.1656 -2.4233 0.0000 0.0000 6.9034 -18.9509 22.2307 -7.4018 7.1250 -0.0000 -0.0000 6.2237 -6.7237 5.4854
4.7101 17.9244 13.0537 0.3503 -3.1265 -5.6802 0.0000 0.0000 0.0000 -24.3236 -6.1911 -4.3862 2.4281 9.7060 28.0300 0.5633 -4.2829 -13.3678 0.0122 0.7125 1.9581 0.0000 0.0000 0.0000 21.7912 8.0917 -19.7775 -14.1686 -19.1644 72.7186 0.0823 -5.7984 -5.0931 -0.3286 -3.6845 10.1906 -1.3255 0.5740 10.7511 0.7365 0.6428 0.5001 1.4194 0.3589 -5.5342 -1.6870 -2.9784 -15.8568 0.3528 -3.8047 21.1107 -0.0779 -1.8755 9.3057 0.0000 0.0000 0.0000 -83.9538 5.0882 24.2279 12.9951 -21.2800 -2.4515 -0.0000 0.0000 -2.4235 27.6277 22.5235 11.3373 -7.1250 0.0000 -0.0000 -1.4332 55.0567 -0.3540 0.0000 0.0000 0.0000 89.7610 1.5823 3.7125 -12.9713 21.2452 -2.4429 0.0000 0.0000 6.7913 -19.0289 21.8574 -7.3169 7.1250 -0.0000 -0.0000 6.1469 -7.0971 5.3722
4.7148 17.8964 13.4075 0.9458 -3.0736 -5.5979 0.0000 0.0000 0.0000 -25.2797 -5.7322 -3.1706 2.4331 9.7152 28.0595 0.6583 -4.2596 -14.4762 0.0289 1.0973 3.0165 0.0000 0.0000 0.0000 20.8409 8.8056 -21.7764 -13.5635 -18.9763 70.8668 -0.0242 -4.7175 -7.5264 -0.1842 -2.7640 7.6223 -1.8138 0.5066 10.7243 0.6023 0.4855 0.3214 1.5785 0.2954 -5.7048 -1.7061 -2.8488 -15.3999 0.2877 -3.6109 20.9441 -0.0638 -1.7967 9.1605 0.0000 0.0000 0.0000 -83.3224 5.2425 27.0698 13.2042 -21.5857 -2.5279 -0.0000 0.0000 -7.5882 31.8788 12.3485 7.5761 -7.1250 0.0000 -0.0000 4.2939 44.3938 -0.0644 0.0000 0.0000 0.0000 89.8350 0.7637 4.0089 -12.9293 21.1836 -2.4277 0.0000 0.0000 6.3895 -19.4252 23.9769 -8.1553 7.1250 -0.0000 -0.0000 6.0696 -4.8524 5.5664
4.6966 17.8545 13.7535 1.0307 -3.0561 -5.6196 0.0000 0.0000 0.0000 -25.5284 -5.1502 -2.0735 2.4243 9.6989 28.0072 0.7567 -4.2119 -15.5525 0.0127 0.7264 1.9962 0.0000 0.0000 0.0000 20.6482 9.4963 -23.4056 -12.7727 -18.6986 68.4181 -0.1126 -4.6606 -9.7208 -0.1033 -2.0724 5.7059 -2.0883 0.3803 10.7417 0.7071 0.2906 0.5353 1.8734 0.2036 -5.4834 -2.0080 -2.8608 -15.7839 0.3437 -3.5515 20.6939 0.0088 -1.7852 9.1516 0.0000 0.0000 0.0000 -82.8099 4.0677 26.2332 13.7986 -22.4460 -2.7507 -0.0000 0.0000 -4.2175 27.4689 25.8805 12.7853 -7.1250 0.0000 -0.0000 -2.6839 58.6295 -0.8948 0.0000 0.0000 0.0000 89.8348 0.6772 4.4295 -12.9139 21.1609 -2.4221 0.0000 0.0000 6.1813 -19.0035 24.8506 -8.2354 7.1250 -0.0000 -0.0000 6.4059 -4.0225 5.9789
4.6909 17.8230 14.0938 1.3330 -2.6565 -5.4528 0.0000 0.0000 0.0000 -26.0840 -5.1137 -0.9834 2.3919 9.6387 27.8145 0.8006 -4.2490 -16.0073 0.0567 1.5364 4.2260 0.0000 0.0000 0.0000 19.9926 9.6967 -25.2610 -11.8169 -18.3122 65.4073 -0.2294 -4.6711 -11.9846 -0.0064 0.5176 -1.4222 -2.4787 0.1381 10.7432 0.7063 -0.0788 0.5828 2.1495 0.0301 -5.4161 -1.8218 -2.6688 -15.9089 0.0859 -3.2649 20.2470 -0.0721 -1.6647 9.0084 0.0000 0.0000 0.0000 -82.2674 3.5035 26.9864 14.5278 -23.4841 -3.0353 -0.0000 0.0000 -5.6903 27.6883 26.4675 13.1635 -7.1250 0.0000 -0.0000 -2.6568 59.3073 -0.9289 0.0000 0.0000 0.0000 89.9091 0.3373 4.8443 -13.0995 21.4328 -2.4895 0.0000 0.0000 5.9992 -19.0610 23.4408 -7.8262 7.1250 -0.0000 -0.0000 6.2497 -5.4613 5.6611
4.6816 17.7956 14.4356 1.7417 -2.3393 -5.2604 0.0000 0.0000 0.0000 -26.6933 -4.5530 0.5142 2.2857 9.4375 27.1736 0.9319 -4.3524 -17.3019 0.0413 1.3119 3.6073 0.0000 0.0000 0.0000 19.2242 10.0785 -26.6860 -10.6555 -17.7623 61.6577 -0.2307 -5.5034 -12.7531 -0.1016 2.0554 -5.6587 -2.8982 -0.0310 11.0578 0.6322 -0.3687 0.5385 2.3561 -0.0992 -5.6210 -2.2252 -2.6733 -16.5430 0.4597 -3.2372 20.3285 0.1159 -1.6389 9.1669 0.0000 0.0000 0.0000 -81.6667 2.8664 27.7670 14.9624 -24.0938 -3.2106 -0.0000 0.0000 -6.2040 28.6416 23.3675 12.2227 -7.1250 0.0000 -0.0000 -0.5649 56.1902 -0.1550 0.0000 0.0000 0.0000 90.0666 -0.0991 5.0890 -13.3531 21.8024 -2.5830 0.0000 0.0000 5.7104 -19.4460 22.7143 -7.7632 7.1250 -0.0000 -0.0000 5.9507 -6.1506 5.3082
4.6701 17.7884 14.7833 1.8963 -2.2728 -5.1188 0.0000 0.0000 0.0000 -27.0187 -4.0606 2.0200 2.1584 9.1885 26.3869 1.0063 -4.2891 -18.0098 0.0418 1.3202 3.6302 0.0000 0.0000 0.0000 18.8330 10.2963 -27.5939 -9.3524 -17.0292 57.3011 -0.1536 -6.9803 -12.9750 -0.0001 0.0638 -0.1754 -3.0465 -0.0958 11.1335 0.6104 -0.4777 0.4962 2.4353 -0.1473 -5.7005 -2.2277 -2.5247 -16.3916 0.5462 -3.0485 19.8509 0.1750 -1.5417 8.9731 -0.0000 -0.0000 0.0000 -81.0799 2.4615 29.3074 16.3020 -25.9284 -3.7770 -0.0000 0.0000 -7.4169 29.9034 33.1237 17.4461 -7.1250 0.0000 -0.0000 -3.2882 66.9209 -1.7369 -0.0000 -0.0000 0.0000 90.2639 -1.0049 5.5994 -13.8331 22.4955 -2.7639 0.0000 0.0000 4.7714 -19.0974 21.4096 -7.2032 7.1250 -0.0000 -0.0000 6.0711 -7.5494 5.2512
4.6546 17.7597 15.1182 1.8949 -2.1159 -4.8050 0.0000 0.0000 0.0000 -27.0306 -3.4791 3.3678 1.9865 8.8379 25.2894 1.0796 -4.5521 -18.6489 0.0471 1.4002 3.8506 0.0000 0.0000 0.0000 18.5461 10.9285 -28.3732 -7.9915 -16.1130 52.5320 -0.0599 -8.2667 -12.9048 -0.0007 0.1703 -0.4680 -3.1769 -0.2547 11.2057 0.7284 -0.7024 0.3681 2.6709 -0.2479 -5.8589 -2.4154 -2.5219 -16.1308 0.5840 -3.0068 19.4119 0.2298 -1.5330 8.7786 0.0000 0.0000 0.0000 -80.6276 1.8269 29.0383 16.1565 -25.7324 -3.7136 -0.0000 0.0000 -7.0261 28.2381 25.4317 12.9870 -7.1250 0.0000 -0.0000 -1.6513 58.3300 -0.5385 0.0000 0.0000 0.0000 90.2344 -1.5475 5.5925 -13.8931 22.5816 -2.7869 0.0000 0.0000 4.6384 -19.9565 22.5093 -7.9140 7.1250 -0.0000 -0.0000 5.6142 -6.2841 4.9905
4.6339 17.7505 15.4699 2.1854 -2.1191 -4.5560 0.0000 0.0000 0.0000 -27.2767 -2.4965 4.8236 1.7723 8.3748 23.8583 1.0964 -4.6564 -18.7890 0.0270 1.0601 2.9142 0.0000 0.0000 0.0000 17.9362 11.6109 -28.7806 -6.5514 -14.9422 47.1567 0.1507 -9.8777 -11.1718 -0.0064 0.5165 -1.4192 -3.5174 -0.2548 11.0024 0.7031 -0.7377 0.5441 2.8373 -0.2653 -5.5530 -2.1979 -2.5411 -16.3796 0.1822 -2.9885 18.8589 0.0610 -1.5495 8.6245 -0.0000 -0.0000 0.0000 -80.2427 0.9323 28.9307 16.5784 -26.2986 -3.8987 -0.0000 0.0000 -6.6429 29.0329 18.6485 10.0645 -7.1250 0.0000 -0.0000 0.8820 51.0834 0.1322 -0.0000 -0.0000 0.0000 90.4238 -1.5829 5.3846 -14.1732 22.9817 -2.8954 0.0000 0.0000 4.4482 -19.1275 21.9933 -7.4003 7.1250 -0.0000 -0.0000 6.0948 -6.9424 5.3445
